<?xml version="1.0" encoding="utf-8"?>
<!-- Generator: Adobe Illustrator 23.0.2, SVG Export Plug-In . SVG Version: 6.00 Build 0)  -->
<svg version="1.1" id="Calque_1" xmlns="http://www.w3.org/2000/svg" xmlns:xlink="http://www.w3.org/1999/xlink" x="0px" y="0px"
	 viewBox="0 0 1448 670" style="enable-background:new 0 0 1448 670;" xml:space="preserve">
<style type="text/css">
	.st0{fill:#273849;}
	.st1{fill:#FFBE2E;}
</style>
<g>
	<circle class="st0" cx="941.18" cy="474.06" r="8.39"/>
	<circle class="st0" cx="941.18" cy="431.73" r="8.39"/>
	<path class="st0" d="M205.45-0.14c22.67,0,43.63,3.21,62.89,9.63c19.26,6.43,36.27,14.73,51,24.93s26.25,21.16,34.56,32.86
		l-39.67,41.36c-15.11-14.35-31.73-26.15-49.86-35.41c-18.13-9.25-37.77-13.88-58.93-13.88c-26.82,0-51.09,6.23-72.81,18.7
		c-21.72,12.46-38.81,29.38-51.27,50.71c-12.47,21.35-18.7,45.61-18.7,72.81c0,26.82,6.61,51.19,19.83,73.09
		c13.22,21.91,30.88,39.29,52.98,52.13c22.1,12.85,46.18,19.26,72.24,19.26c18.89,0,36.63-3.68,53.26-11.05
		c16.62-7.37,30.12-17.47,40.51-30.31c10.39-12.84,15.58-27.57,15.58-44.2c0-1.89,0-3.02,0-3.4H204.32v-60.63h175.64
		c0.75,5.66,1.42,11.33,1.99,17c0.56,5.66,0.85,11.33,0.85,17c0,20.78-3.12,41.18-9.35,61.19c-6.23,20.03-15.96,37.4-29.18,52.13
		c-15.11,18.89-34.66,33.91-58.64,45.04c-23.99,11.14-50.52,16.71-79.61,16.71c-28.71,0-55.53-5.2-80.46-15.58
		c-24.93-10.38-46.84-24.83-65.73-43.34c-18.89-18.5-33.52-40.13-43.91-64.87C5.53,257.01,0.35,230.28,0.35,201.57
		c0-28.7,5.19-55.24,15.58-79.61c10.39-24.36,24.93-45.7,43.63-64.03c18.7-18.32,40.51-32.58,65.44-42.78
		C149.93,4.96,176.74-0.14,205.45-0.14z"/>
	<path class="st0" d="M559,519.84l44.21-101.27l1.7-3.97l-138.25-312.2h67.99l92.92,218.71c1.14,2.27,2.27,5.1,3.4,8.5
		c1.13,3.4,2.45,7.18,3.96,11.33c1.51-4.15,2.92-8.22,4.25-12.18c1.32-3.97,2.74-7.83,4.26-11.61l77.62-214.74h69.12L667.79,399.88
		l-48.27,124.73L559,519.84z"/>
	<path class="st0" d="M1057.04,165.31c-3.78-1.89-8.41-3.49-13.88-4.81c-5.48-1.32-11.24-1.99-17.28-1.99
		c-12.09,0-23.99,3.12-35.7,9.35c-11.71,6.23-21.44,15.11-29.18,26.63c-7.75,11.53-11.61,25.21-11.61,41.08v164.31h-58.93V102.41
		h58.93v56.09c8.3-18.13,20.86-33.05,37.68-44.76c16.81-11.7,34.47-17.56,52.98-17.56c13.97,0,24.74,1.89,32.3,5.66L1057.04,165.31z
		"/>
	<path class="st0" d="M1448,250.86c0,30.23-6.71,56.94-20.12,80.17c-13.41,23.23-31.54,41.46-54.39,54.68
		c-22.86,13.23-48.44,19.83-76.77,19.83c-28.33,0-54.02-6.6-77.06-19.83c-23.04-13.22-41.27-31.44-54.68-54.68
		c-13.41-23.23-20.11-49.95-20.11-80.17c0-30.21,6.7-56.94,20.11-80.17c13.41-23.23,31.64-41.45,54.68-54.68
		c23.03-13.22,48.73-19.83,77.06-19.83c28.33,0,53.91,6.61,76.77,19.83c22.85,13.22,40.98,31.44,54.39,54.68
		C1441.29,193.92,1448,220.65,1448,250.86z M1388.51,250.86c0.38-20.01-3.5-37.68-11.61-52.98c-8.13-15.3-19.17-27.2-33.15-35.7
		c-13.97-8.5-29.66-12.75-47.03-12.75c-17.38,0-33.15,4.25-47.31,12.75c-14.16,8.5-25.31,20.4-33.43,35.7
		c-8.13,15.3-12,32.96-11.62,52.98c-0.38,19.65,3.49,37.11,11.62,52.41c8.12,15.3,19.26,27.29,33.43,35.98
		c14.16,8.69,29.93,13.03,47.31,13.03c17.37,0,33.05-4.34,47.03-13.03c13.97-8.68,25.02-20.68,33.15-35.98
		C1385.01,287.97,1388.88,270.51,1388.51,250.86z"/>
	<circle class="st0" cx="687.17" cy="558.74" r="8.39"/>
	<circle class="st0" cx="687.17" cy="601.07" r="8.39"/>
	<circle class="st0" cx="729.5" cy="558.74" r="8.39"/>
	<circle class="st0" cx="771.84" cy="601.07" r="8.39"/>
	<circle class="st0" cx="729.5" cy="601.07" r="8.39"/>
	<circle class="st0" cx="814.17" cy="558.74" r="8.39"/>
	<circle class="st0" cx="771.84" cy="558.74" r="8.39"/>
	<circle class="st0" cx="856.51" cy="601.07" r="8.39"/>
	<circle class="st0" cx="814.17" cy="601.07" r="8.39"/>
	<circle class="st0" cx="856.51" cy="558.74" r="8.39"/>
	<circle class="st0" cx="941.18" cy="601.07" r="8.39"/>
	<circle class="st0" cx="898.85" cy="601.07" r="8.39"/>
	<circle class="st0" cx="941.18" cy="558.74" r="8.39"/>
	<circle class="st0" cx="898.85" cy="558.74" r="8.39"/>
	<circle class="st0" cx="941.18" cy="516.4" r="8.39"/>
	<circle class="st0" cx="941.18" cy="474.06" r="8.39"/>
	<circle class="st0" cx="941.18" cy="431.73" r="8.39"/>
	<circle class="st0" cx="941.18" cy="516.4" r="8.39"/>
	<circle class="st0" cx="898.85" cy="474.06" r="8.39"/>
	<circle class="st0" cx="898.85" cy="431.73" r="8.39"/>
	<circle class="st0" cx="898.85" cy="516.4" r="8.39"/>
	<path class="st1" d="M562.68,670.12c-49.75,0-90.22-40.47-90.22-90.22c0-49.75,40.48-90.22,90.22-90.22s90.22,40.47,90.22,90.22
		C652.89,629.65,612.42,670.12,562.68,670.12z M562.68,529.42c-27.84,0-50.49,22.65-50.49,50.49s22.65,50.49,50.49,50.49
		s50.49-22.65,50.49-50.49S590.52,529.42,562.68,529.42z"/>
</g>
</svg>
